<svg width="73" height="71" viewBox="0 0 73 71" fill="none" xmlns="http://www.w3.org/2000/svg">
<g clip-path="url(#clip0_305_12)">
<path d="M36.5 71C56.6584 71 73 55.1061 73 35.5C73 15.8939 56.6584 0 36.5 0C16.3416 0 0 15.8939 0 35.5C0 55.1061 16.3416 71 36.5 71Z" fill="white"/>
<path d="M42.3077 10.4641C42.7297 10.8611 43.4028 10.8501 43.8109 10.4396C44.2191 10.0291 44.2078 9.37454 43.7857 8.97757C43.3636 8.5806 42.6906 8.59157 42.2825 9.00208C41.8743 9.41258 41.8856 10.0672 42.3077 10.4641Z" stroke="#333333" stroke-width="0.970874"/>
<path d="M55.332 17.2338L57.0028 15.9548" stroke="#333333" stroke-width="0.970874" stroke-linecap="round"/>
<path d="M51.4316 20.2182L53.1025 18.9392" stroke="#333333" stroke-width="0.970874" stroke-linecap="round"/>
<path d="M53.3404 17.0032L52.0254 15.3782" stroke="#333333" stroke-width="0.970874" stroke-linecap="round"/>
<path d="M56.4088 20.7949L55.0938 19.1699" stroke="#333333" stroke-width="0.970874" stroke-linecap="round"/>
<path d="M37.2952 35.1646C40.5271 35.1646 43.1471 32.6164 43.1471 29.473C43.1471 26.3297 40.5271 23.7815 37.2952 23.7815C34.0633 23.7815 31.4434 26.3297 31.4434 29.473C31.4434 32.6164 34.0633 35.1646 37.2952 35.1646Z" fill="white" stroke="#333333" stroke-width="0.970874"/>
<path d="M40.7435 29.4731C40.7435 31.3252 39.1998 32.8266 37.2956 32.8266M33.8477 29.4731C33.8477 27.621 35.3914 26.1196 37.2956 26.1196" stroke="#333333" stroke-width="0.970874" stroke-linecap="round"/>
<path d="M31.5488 35.5093H42.5822" stroke="#333333" stroke-width="0.970874" stroke-linecap="round"/>
<path d="M42.3511 32.8267C48.3177 32.8267 53.1546 37.531 53.1546 43.3341C53.1546 47.4394 50.7339 50.9947 47.2052 52.7238V56.5244H41.6615V53.8205H32.9268V56.5244H27.4102" stroke="#333333" stroke-width="0.970874" stroke-linecap="round" stroke-linejoin="round"/>
<path d="M32.2387 32.8266C31.5311 32.8266 30.8395 32.8927 30.1699 33.019L28.5609 32.0127L25.5727 30.1438V35.0647C23.57 36.594 22.1366 38.7966 21.6331 41.322H19.1367V46.6875H21.998C22.913 49.3257 24.8786 51.4912 27.4116 52.7237V56.5243" stroke="#333333" stroke-width="0.970874" stroke-linecap="round" stroke-linejoin="round"/>
<path d="M27.8705 42.3186C28.4365 42.3186 28.8953 41.8724 28.8953 41.3219C28.8953 40.7714 28.4365 40.3252 27.8705 40.3252C27.3045 40.3252 26.8457 40.7714 26.8457 41.3219C26.8457 41.8724 27.3045 42.3186 27.8705 42.3186Z" stroke="#333333" stroke-width="0.970874"/>
<path d="M53.155 43.7812C53.155 44.8925 52.2289 45.7934 51.0863 45.7934C49.9438 45.7934 49.0176 44.8925 49.0176 43.7812" stroke="#333333" stroke-width="0.970874"/>
</g>
<defs>
<clipPath id="clip0_305_12">
<rect width="73" height="71" fill="white"/>
</clipPath>
</defs>
</svg>
