<svg width="100" height="100" viewBox="0 0 100 100" fill="none" xmlns="http://www.w3.org/2000/svg">
<g clip-path="url(#clip0_304_2)">
<path d="M50 100C77.6142 100 100 77.6142 100 50C100 22.3858 77.6142 0 50 0C22.3858 0 0 22.3858 0 50C0 77.6142 22.3858 100 50 100Z" fill="white"/>
<path d="M50 100C77.6142 100 100 77.6142 100 50C100 22.3858 77.6142 0 50 0C22.3858 0 0 22.3858 0 50C0 77.6142 22.3858 100 50 100Z" fill="white"/>
<path d="M66.1575 46.4634H31.5527V72.3303H66.1575V46.4634Z" stroke="#333333" stroke-width="0.970874"/>
<path d="M41.0547 47.2939V60.0886L44.7995 57.7413L48.5443 60.0886L52.2892 57.7413L56.0339 60.0886V47.2939" stroke="#333333" stroke-width="0.970874" stroke-linecap="round" stroke-linejoin="round"/>
<path d="M49.1686 29.1262L45.4238 34.7434L49.1686 40.3606" stroke="#333333" stroke-width="0.970874" stroke-linecap="round" stroke-linejoin="round"/>
<path d="M58.8789 64.1831V68.2053" stroke="#333333" stroke-width="0.970874" stroke-linecap="round"/>
<path d="M62 64.1831V68.2053" stroke="#333333" stroke-width="0.970874" stroke-linecap="round"/>
<path d="M67.8926 53.4674C73.063 53.4674 77.2546 49.2758 77.2546 44.1053C77.2546 38.9349 73.063 34.7434 67.8926 34.7434H45.4238" stroke="#333333" stroke-width="0.970874"/>
<path fill-rule="evenodd" clip-rule="evenodd" d="M34.4568 23.301C33.5082 23.301 32.5619 23.6492 31.8356 24.3531L31.2127 24.952L30.6021 24.3585C29.8758 23.6545 28.9287 23.3026 27.9817 23.3026C27.0338 23.3026 26.0868 23.6545 25.3604 24.3585C23.9085 25.7664 23.9085 28.0866 25.3604 29.4936C27.1843 31.262 29.0074 33.0265 30.8314 34.794C30.9402 34.899 31.0806 34.9515 31.2219 34.9515C31.3624 34.9515 31.5036 34.899 31.6125 34.794L37.0772 29.4883C38.5268 28.0797 38.5284 25.7609 37.0772 24.3531C36.3509 23.6492 35.4046 23.301 34.4568 23.301ZM34.4568 24.0729C35.2449 24.0729 35.9851 24.3693 36.5401 24.9072C37.0897 25.4399 37.3937 26.1546 37.3937 26.918C37.3937 27.6829 37.0904 28.3992 36.5393 28.934L31.2219 34.0978L28.6401 31.597L25.8984 28.9402C25.3473 28.4054 25.0439 27.6906 25.0439 26.9265C25.0439 26.1623 25.3473 25.4469 25.8984 24.9127C26.4557 24.3724 27.1951 24.0744 27.9817 24.0744C28.7674 24.0744 29.5076 24.3724 30.0641 24.9119L30.6755 25.5055L31.2103 26.0257L31.7483 25.5086L32.3735 24.9072C32.9285 24.3693 33.6679 24.0729 34.4568 24.0729Z" fill="#333333" stroke="#333333" stroke-width="0.145631"/>
</g>
<defs>
<clipPath id="clip0_304_2">
<rect width="100" height="100" fill="white"/>
</clipPath>
</defs>
</svg>
