<svg width="53" height="17" viewBox="0 0 53 17" fill="none" xmlns="http://www.w3.org/2000/svg">
<path fill-rule="evenodd" clip-rule="evenodd" d="M37.6246 11.3143C37.6351 8.66068 35.4414 7.51499 33.7383 6.62478C32.6604 6.06183 31.7793 5.60141 31.7793 4.92699C31.7793 4.35215 32.3372 3.74352 33.5246 3.58636C34.9361 3.4471 36.3603 3.69373 37.6414 4.30047L38.3751 0.819402C37.1256 0.351949 35.8014 0.110265 34.4667 0.105286C30.3488 0.105286 27.4867 2.29836 27.4867 5.43131C27.4867 7.74668 29.5635 9.03468 31.134 9.80047C32.7045 10.5664 33.3151 11.1054 33.2972 11.8016C33.2972 12.8808 32.0067 13.368 30.8025 13.3859C29.3172 13.4049 27.8519 13.0458 26.5446 12.3416L25.794 15.8227C27.273 16.3986 28.8488 16.688 30.4361 16.6751C34.8151 16.6751 37.6951 14.5168 37.7119 11.175L37.6246 11.3143ZM26.3004 0.38477L22.8109 16.4842H18.6235L22.113 0.38477H26.3004ZM43.854 10.8269L46.0519 4.78783L47.3267 10.8269H43.854ZM52.3867 16.5368H48.513L48.0067 14.1349H42.7551L41.8993 16.5368H37.5025L43.7667 1.62004C44.0551 0.909907 44.7425 0.443444 45.5119 0.436486H49.0014L52.3867 16.5368ZM13.6498 16.4314L20.4204 0.332054H15.8835L11.5393 11.2794L9.79404 1.96815C9.6393 1.0213 8.81826 0.328075 7.8572 0.332054H0.756148L0.650879 0.801496C2.07509 1.07998 3.45929 1.53551 4.76876 2.1591C5.32665 2.42068 5.70456 2.95678 5.7635 3.56941L9.09615 16.4314H13.6498Z" fill="#212B36"/>
</svg>
